<mxfile host="Electron" agent="Mozilla/5.0 (Windows NT 10.0; Win64; x64) AppleWebKit/537.36 (KHTML, like Gecko) draw.io/24.7.17 Chrome/128.0.6613.36 Electron/32.0.1 Safari/537.36" version="24.7.17">
  <diagram id="j7u3vfIIvnQYxg0B_kr3" name="Page-1">
    <mxGraphModel dx="1037" dy="751" grid="1" gridSize="10" guides="1" tooltips="1" connect="1" arrows="1" fold="1" page="1" pageScale="1" pageWidth="1250" pageHeight="650" math="0" shadow="0">
      <root>
        <mxCell id="0" />
        <mxCell id="1" parent="0" />
        <mxCell id="lMZu1XvxjfdbiQU4B4vd-2" value="Phần mềm ứng dụng" style="rounded=1;whiteSpace=wrap;html=1;fontFamily=Noto Sans;fontSize=20;fillColor=#00CC66;strokeColor=none;fontColor=#FFFFFF;fontSource=https%3A%2F%2Ffonts.googleapis.com%2Fcss%3Ffamily%3DNoto%2BSans;" parent="1" vertex="1">
          <mxGeometry x="343.69" y="148" width="231.11" height="60" as="geometry" />
        </mxCell>
        <mxCell id="lMZu1XvxjfdbiQU4B4vd-3" value="Hệ quản trị cơ sở dữ liệu" style="rounded=1;whiteSpace=wrap;html=1;fontFamily=Noto Sans;fontSize=20;fillColor=#2e73b8;strokeColor=none;fontColor=#FFFFFF;fontSource=https%3A%2F%2Ffonts.googleapis.com%2Fcss%3Ffamily%3DNoto%2BSans;" parent="1" vertex="1">
          <mxGeometry x="440" y="270" width="260" height="60" as="geometry" />
        </mxCell>
        <mxCell id="lMZu1XvxjfdbiQU4B4vd-5" value="" style="html=1;shadow=0;dashed=0;align=center;verticalAlign=middle;shape=mxgraph.arrows2.arrow;dy=0.38;dx=22.79;notch=0;strokeColor=none;fontFamily=Noto Sans;fontSize=20;fontColor=#FFFFFF;fillColor=#00CC66;rotation=90;fontSource=https%3A%2F%2Ffonts.googleapis.com%2Fcss%3Ffamily%3DNoto%2BSans;" parent="1" vertex="1">
          <mxGeometry x="440" y="220" width="38.49" height="43.09" as="geometry" />
        </mxCell>
        <mxCell id="lMZu1XvxjfdbiQU4B4vd-6" value="" style="html=1;shadow=0;dashed=0;align=center;verticalAlign=middle;shape=mxgraph.arrows2.arrow;dy=0.38;dx=22.79;notch=0;strokeColor=none;fontFamily=Noto Sans;fontSize=20;fontColor=#FFFFFF;fillColor=#2E73B8;rotation=-90;fontSource=https%3A%2F%2Ffonts.googleapis.com%2Fcss%3Ffamily%3DNoto%2BSans;" parent="1" vertex="1">
          <mxGeometry x="500" y="220" width="38.49" height="43.09" as="geometry" />
        </mxCell>
        <mxCell id="lMZu1XvxjfdbiQU4B4vd-7" value="" style="html=1;shadow=0;dashed=0;align=center;verticalAlign=middle;shape=mxgraph.arrows2.arrow;dy=0.38;dx=22.79;notch=0;strokeColor=none;fontFamily=Noto Sans;fontSize=20;fontColor=#FFFFFF;fillColor=#2E73B8;rotation=90;fontSource=https%3A%2F%2Ffonts.googleapis.com%2Fcss%3Ffamily%3DNoto%2BSans;" parent="1" vertex="1">
          <mxGeometry x="500" y="340.00000000000006" width="38.49" height="43.09" as="geometry" />
        </mxCell>
        <mxCell id="lMZu1XvxjfdbiQU4B4vd-8" value="" style="html=1;shadow=0;dashed=0;align=center;verticalAlign=middle;shape=mxgraph.arrows2.arrow;dy=0.38;dx=22.79;notch=0;strokeColor=none;fontFamily=Noto Sans;fontSize=20;fontColor=#FFFFFF;fillColor=#FFBF00;rotation=-90;fontSource=https%3A%2F%2Ffonts.googleapis.com%2Fcss%3Ffamily%3DNoto%2BSans;" parent="1" vertex="1">
          <mxGeometry x="591.51" y="340" width="38.49" height="43.09" as="geometry" />
        </mxCell>
        <mxCell id="I4BoXhQVYIKMCfxeh0A4-7" value="" style="sketch=0;outlineConnect=0;fontColor=#232F3E;gradientColor=none;fillColor=#FF9999;strokeColor=none;dashed=0;verticalLabelPosition=bottom;verticalAlign=top;align=center;html=1;fontSize=12;fontStyle=0;aspect=fixed;pointerEvents=1;shape=mxgraph.aws4.user;fontFamily=Noto Sans;fontSource=https%3A%2F%2Ffonts.googleapis.com%2Fcss%3Ffamily%3DNoto%2BSans;" parent="1" vertex="1">
          <mxGeometry x="600" y="108" width="100" height="100" as="geometry" />
        </mxCell>
        <mxCell id="I4BoXhQVYIKMCfxeh0A4-8" value="" style="html=1;shadow=0;dashed=0;align=center;verticalAlign=middle;shape=mxgraph.arrows2.arrow;dy=0.38;dx=22.79;notch=0;strokeColor=none;fontFamily=Noto Sans;fontSize=20;fontColor=#FFFFFF;fillColor=#FF9999;rotation=90;fontSource=https%3A%2F%2Ffonts.googleapis.com%2Fcss%3Ffamily%3DNoto%2BSans;" parent="1" vertex="1">
          <mxGeometry x="661.51" y="220" width="38.49" height="43.09" as="geometry" />
        </mxCell>
        <mxCell id="I4BoXhQVYIKMCfxeh0A4-9" value="" style="html=1;shadow=0;dashed=0;align=center;verticalAlign=middle;shape=mxgraph.arrows2.arrow;dy=0.38;dx=22.79;notch=0;strokeColor=none;fontFamily=Noto Sans;fontSize=20;fontColor=#FFFFFF;fillColor=#2E73B8;rotation=-90;fontSource=https%3A%2F%2Ffonts.googleapis.com%2Fcss%3Ffamily%3DNoto%2BSans;" parent="1" vertex="1">
          <mxGeometry x="606" y="220" width="38.49" height="43.09" as="geometry" />
        </mxCell>
        <mxCell id="I4BoXhQVYIKMCfxeh0A4-2" value="Cơ sở dữ liệu" style="shape=cylinder3;whiteSpace=wrap;html=1;boundedLbl=1;backgroundOutline=1;size=15;fillColor=#ffbf00;strokeColor=#FFE599;container=0;fontColor=#FFFFFF;fontSize=20;fontFamily=Noto Sans;fontSource=https%3A%2F%2Ffonts.googleapis.com%2Fcss%3Ffamily%3DNoto%2BSans;" parent="1" vertex="1">
          <mxGeometry x="479.25" y="530" width="161.51" height="83.82" as="geometry" />
        </mxCell>
        <mxCell id="rkTRhhw2kHA4zp4epzsW-1" value="" style="shape=cylinder3;whiteSpace=wrap;html=1;boundedLbl=1;backgroundOutline=1;size=15;fillColor=#ffbf00;strokeColor=#FFE599;container=0;fontColor=#FFFFFF;fontSize=20;fontFamily=Noto Sans;fontSource=https%3A%2F%2Ffonts.googleapis.com%2Fcss%3Ffamily%3DNoto%2BSans;" vertex="1" parent="1">
          <mxGeometry x="479.25" y="460" width="161.51" height="83.82" as="geometry" />
        </mxCell>
        <mxCell id="rkTRhhw2kHA4zp4epzsW-2" value="" style="shape=cylinder3;whiteSpace=wrap;html=1;boundedLbl=1;backgroundOutline=1;size=15;fillColor=#ffbf00;strokeColor=#FFE599;container=0;fontColor=#FFFFFF;fontSize=20;fontFamily=Noto Sans;fontSource=https%3A%2F%2Ffonts.googleapis.com%2Fcss%3Ffamily%3DNoto%2BSans;" vertex="1" parent="1">
          <mxGeometry x="479.25" y="390" width="161.51" height="83.82" as="geometry" />
        </mxCell>
      </root>
    </mxGraphModel>
  </diagram>
</mxfile>
